{"title":"The Mike Tyson Story.dvd.rip.avi","uid":9118241,"size":521133849,"categoryP":"video","categoryS":"movies","magnet":"?xt=urn:btih:7c0f6d919312a15fbad5a6b4f2edfee600601fcc&amp;dn=The+Mike+Tyson+Story.dvd.rip.avi&amp;tr=udp%3A%2F%2Ftracker.openbittorrent.com%3A80&amp;tr=udp%3A%2F%2Fopen.demonii.com%3A1337&amp;tr=udp%3A%2F%2Ftracker.coppersurfer.tk%3A6969&amp;tr=udp%3A%2F%2Fexodus.desync.com%3A6969","seeders":1,"leechers":0,"uploader":"CATRIX02","files":-1,"time":1383071744,"description":"Complete name                     :THE_MIKE_TYSON_STORY_dvd.rip.mp4\nFormat                                   : MPEG-4\nFormat profile                           : Base Media\nCodec ID                                 : isom\nFile size                                : 495 MiB\nDuration                                 : 52mn 1s\nOverall bit rate                         : 1 332 Kbps\nMovie name                               : THE_MIKE_TYSON_STORY\nWriting application                      : Lavf54.46.100\n &lt;a href=&quot;\nhttp://imagecurl.org/images/03187694429461420409.jpg&quot; rel=&quot;nofollow&quot; target=&quot;_NEW&quot;&gt;\nhttp://imagecurl.org/images/03187694429461420409.jpg&lt;/a&gt; &lt;a href=&quot;\nhttp://imagecurl.org/images/92159872297891157810.jpg&quot; rel=&quot;nofollow&quot; target=&quot;_NEW&quot;&gt;\nhttp://imagecurl.org/images/92159872297891157810.jpg&lt;/a&gt; &lt;a href=&quot;\nhttp://imagecurl.org/images/43110345515360946013.jpg&quot; rel=&quot;nofollow&quot; target=&quot;_NEW&quot;&gt;\nhttp://imagecurl.org/images/43110345515360946013.jpg&lt;/a&gt; &lt;a href=&quot;\nhttp://imagecurl.org/images/78534336832298889672.jpg&quot; rel=&quot;nofollow&quot; target=&quot;_NEW&quot;&gt;\nhttp://imagecurl.org/images/78534336832298889672.jpg&lt;/a&gt; &lt;a href=&quot;\nhttp://imagecurl.org/images/78619193363333223264.jpg&quot; rel=&quot;nofollow&quot; target=&quot;_NEW&quot;&gt;\nhttp://imagecurl.org/images/78619193363333223264.jpg&lt;/a&gt;\n\n\n\n\nID                                       : 1\nFormat                                   : MPEG-4 Visual\nFormat settings, BVOP                    : No\nFormat settings, QPel                    : No\nFormat settings, GMC                     : No warppoints\nFormat settings, Matrix                  : Default (H.263)\nCodec ID                                 : 20\nDuration                                 : 52mn 1s\nBit rate mode                            : Constant\nBit rate                                 : 1 199 Kbps\nWidth                                    : 720 pixels\nHeight                                   : 540 pixels\nDisplay aspect ratio                     : 4:3\nFrame rate mode                          : Constant\nFrame rate                               : 23.976 fps\nColor space                              : YUV\nChroma subsampling                       : 4:2:0\nBit depth                                : 8 bits\nScan type                                : Progressive\nCompression mode                         : Lossy\nBits/(Pixel*Frame)                       : 0.129\nStream size                              : 446 MiB (90%)\nWriting library                          : Lavc54.79.100\n\nID                                       : 2\nFormat                                   : AAC\nFormat/Info                              : Advanced Audio Codec\nFormat profile                           : LC\nCodec ID                                 : 40\nDuration                                 : 52mn 1s\nBit rate mode                            : Constant\nBit rate                                 : 128 Kbps\nChannel(s)                               : 2 channels\nChannel positions                        : Front: L R\nSampling rate                            : 44.1 KHz\nCompression mode                         : Lossy\nStream size                              : 47.6 MiB (10%)","torrent":{"xt":"urn:btih:7c0f6d919312a15fbad5a6b4f2edfee600601fcc","amp;dn":"The+Mike+Tyson+Story.dvd.rip.avi","amp;tr":["udp%3A%2F%2Ftracker.openbittorrent.com%3A80","udp%3A%2F%2Fopen.demonii.com%3A1337","udp%3A%2F%2Ftracker.coppersurfer.tk%3A6969","udp%3A%2F%2Fexodus.desync.com%3A6969"],"infoHash":"7c0f6d919312a15fbad5a6b4f2edfee600601fcc","infoHashBuffer":{"type":"Buffer","data":[124,15,109,145,147,18,161,95,186,213,166,180,242,237,254,230,0,96,31,204]},"announce":[],"urlList":[]}}